<?xml version="1.0" encoding="UTF-8" standalone="no"?>
<svg
   xmlns:dc="http://purl.org/dc/elements/1.1/"
   xmlns:cc="http://creativecommons.org/ns#"
   xmlns:rdf="http://www.w3.org/1999/02/22-rdf-syntax-ns#"
   xmlns:svg="http://www.w3.org/2000/svg"
   xmlns="http://www.w3.org/2000/svg"
   xmlns:sodipodi="http://sodipodi.sourceforge.net/DTD/sodipodi-0.dtd"
   xmlns:inkscape="http://www.inkscape.org/namespaces/inkscape"
   id="bg"
   viewBox="0 0 1140 360"
   version="1.1"
   sodipodi:docname="banner3.svg"
   inkscape:version="0.92.2 (5c3e80d, 2017-08-06)">
  <metadata
     id="metadata15">
    <rdf:RDF>
      <cc:Work
         rdf:about="">
        <dc:format>image/svg+xml</dc:format>
        <dc:type
           rdf:resource="http://purl.org/dc/dcmitype/StillImage" />
        <dc:title>banner3b</dc:title>
      </cc:Work>
    </rdf:RDF>
  </metadata>
  <sodipodi:namedview
     pagecolor="#ffffff"
     bordercolor="#666666"
     borderopacity="1"
     objecttolerance="10"
     gridtolerance="10"
     guidetolerance="10"
     inkscape:pageopacity="0"
     inkscape:pageshadow="2"
     inkscape:window-width="1600"
     inkscape:window-height="837"
     id="namedview13"
     showgrid="false"
     inkscape:zoom="0.7046257"
     inkscape:cx="517.34591"
     inkscape:cy="389.97643"
     inkscape:window-x="-8"
     inkscape:window-y="-8"
     inkscape:window-maximized="1"
     inkscape:current-layer="bg" />
  <defs
     id="defs4">
    <style
       id="style2">.cls-1{fill:#7fba00;}.cls-2{fill:#fff;}</style>
  </defs>
  <title
     id="title6">banner3b</title>
  <path
     class="cls-1"
     d="M -2.8383864,0 H 1137.1616 V 360 H -2.8383864 Z"
     id="path8"
     inkscape:connector-curvature="0"
     style="fill:#7fba00" />
  <path
     class="cls-2"
     d="m 189.94374,208.60309 v 11.64 h -3.65 v -30.81 h 8.46 q 4.94,0 7.66,2.41 a 8.59,8.59 0 0 1 2.76,6.81 9.34,9.34 0 0 1 -3,7.18 11.53,11.53 0 0 1 -8.15,2.79 h -4.06 z m 0,-15.9 v 12.63 h 3.78 a 8.45,8.45 0 0 0 5.7,-1.71 6,6 0 0 0 2,-4.82 q 0,-6.1 -7.22,-6.1 h -4.23 z m 34.19,27.54 h -3.52 v -3.44 h -0.09 a 7.38,7.38 0 0 1 -6.77,4 7.23,7.23 0 0 1 -5.15,-1.74 6,6 0 0 1 -1.86,-4.62 q 0,-6.17 7.26,-7.18 l 6.6,-0.92 q 0,-5.61 -4.53,-5.61 a 10.83,10.83 0 0 0 -7.18,2.71 v -3.65 a 13.63,13.63 0 0 1 7.48,-2.06 q 7.76,0 7.76,8.21 v 14.31 z m -3.52,-11.13 -5.31,0.73 a 8.62,8.62 0 0 0 -3.7,1.21 3.5,3.5 0 0 0 -1.25,3.08 3.36,3.36 0 0 0 1.15,2.63 4.44,4.44 0 0 0 3.06,1 5.66,5.66 0 0 0 4.33,-1.84 6.56,6.56 0 0 0 1.71,-4.65 v -2.19 z m 24.54,10.12 a 11.45,11.45 0 0 1 -6,1.53 10,10 0 0 1 -7.59,-3.06 11.09,11.09 0 0 1 -2.89,-7.94 12.2,12.2 0 0 1 3.12,-8.73 10.9,10.9 0 0 1 8.31,-3.3 11.58,11.58 0 0 1 5.11,1.07 v 3.61 a 9,9 0 0 0 -5.26,-1.76 7.08,7.08 0 0 0 -5.53,2.42 9.17,9.17 0 0 0 -2.16,6.35 8.73,8.73 0 0 0 2,6.1 7,7 0 0 0 5.45,2.23 8.83,8.83 0 0 0 5.41,-1.91 v 3.35 z m 23,1 h -4.94 l -9.74,-10.58 h -0.09 v 10.57 h -3.52 v -32.57 h 3.52 v 20.65 h 0.09 l 9.24,-10.08 h 4.58 l -10.21,10.61 z m 18.74,0 h -3.6 v -3.44 0 a 7.38,7.38 0 0 1 -6.77,4 7.23,7.23 0 0 1 -5.15,-1.74 6,6 0 0 1 -1.86,-4.62 q 0,-6.17 7.26,-7.18 l 6.6,-0.92 q -0.08,-5.68 -4.57,-5.68 a 10.83,10.83 0 0 0 -7.18,2.71 v -3.57 a 13.63,13.63 0 0 1 7.48,-2.06 q 7.76,0 7.76,8.21 v 14.31 z m -3.6,-11.12 -5.31,0.73 a 8.62,8.62 0 0 0 -3.7,1.21 3.5,3.5 0 0 0 -1.25,3.08 3.36,3.36 0 0 0 1.15,2.63 4.44,4.44 0 0 0 3.06,1 5.66,5.66 0 0 0 4.33,-1.84 6.56,6.56 0 0 0 1.71,-4.65 v -2.19 z m 28.32,9.37 q 0,12.12 -11.6,12.12 a 15.58,15.58 0 0 1 -7.13,-1.55 v -3.52 a 14.65,14.65 0 0 0 7.09,2.06 q 8.12,0 8.12,-8.64 v -2.4 h -0.09 a 8.9,8.9 0 0 1 -14.17,1.28 11.72,11.72 0 0 1 -2.5,-7.87 q 0,-5.61 2.7,-8.92 a 9,9 0 0 1 7.38,-3.31 7.17,7.17 0 0 1 6.6,3.57 h 0.09 v -3.06 h 3.52 v 20.24 z m -3.52,-8.19 v -3.24 a 6.29,6.29 0 0 0 -1.77,-4.49 5.84,5.84 0 0 0 -4.37,-1.91 6.12,6.12 0 0 0 -5.11,2.37 10.6,10.6 0 0 0 -1.85,6.65 9.1,9.1 0 0 0 1.77,5.88 5.73,5.73 0 0 0 4.69,2.2 6.13,6.13 0 0 0 4.84,-2.1 7.85,7.85 0 0 0 1.85,-5.36 z m 27.72,-0.17 h -15.52 a 8.23,8.23 0 0 0 2,5.67 6.81,6.81 0 0 0 5.2,2 10.81,10.81 0 0 0 6.83,-2.45 v 3.31 a 12.77,12.77 0 0 1 -7.67,2.11 9.3,9.3 0 0 1 -7.33,-3 q -2.66,-3 -2.66,-8.43 a 12,12 0 0 1 2.91,-8.37 9.34,9.34 0 0 1 7.23,-3.23 8.27,8.27 0 0 1 6.68,2.79 q 2.36,2.79 2.36,7.76 v 1.85 z m -3.61,-3 a 7.18,7.18 0 0 0 -1.47,-4.75 5,5 0 0 0 -4,-1.7 5.69,5.69 0 0 0 -4.23,1.78 8.09,8.09 0 0 0 -2.15,4.66 h 11.94 z m 7,12.31 v -3.78 a 10.42,10.42 0 0 0 6.34,2.13 q 4.64,0 4.64,-3.09 a 2.69,2.69 0 0 0 -0.4,-1.49 4,4 0 0 0 -1.07,-1.09 8.3,8.3 0 0 0 -1.59,-0.85 l -2,-0.78 a 25.19,25.19 0 0 1 -2.57,-1.17 7.74,7.74 0 0 1 -1.85,-1.33 5,5 0 0 1 -1.12,-1.69 6,6 0 0 1 -0.38,-2.21 5.26,5.26 0 0 1 0.71,-2.74 6.29,6.29 0 0 1 1.89,-2 8.82,8.82 0 0 1 2.7,-1.21 12,12 0 0 1 3.13,-0.41 12.63,12.63 0 0 1 5.11,1 v 3.57 a 10,10 0 0 0 -5.51,-1.64 6.52,6.52 0 0 0 -1.78,0.23 4.36,4.36 0 0 0 -1.36,0.63 2.92,2.92 0 0 0 -0.88,1 2.57,2.57 0 0 0 -0.31,1.26 3,3 0 0 0 0.31,1.44 3.16,3.16 0 0 0 0.91,1 6.94,6.94 0 0 0 1.46,0.82 q 0.86,0.37 2,0.79 a 27.4,27.4 0 0 1 2.62,1.15 9,9 0 0 1 2,1.33 5.21,5.21 0 0 1 1.26,1.71 5.52,5.52 0 0 1 0.44,2.3 5.42,5.42 0 0 1 -0.72,2.84 6.17,6.17 0 0 1 -1.92,2 8.81,8.81 0 0 1 -2.77,1.18 13.69,13.69 0 0 1 -3.29,0.39 12.48,12.48 0 0 1 -5.91,-1.27 z m 129.18,1.22 -17.09,-24.73 q -0.32,-0.47 -0.63,-1 a 6.22,6.22 0 0 1 -0.5,-1 h -0.11 q 0,0.39 0.08,1.07 0.08,0.68 0,1.72 v 23.94 h -2.84 v -30.81 h 3.16 l 16.84,24.43 q 0.39,0.58 0.7,1.08 l 0.57,0.93 h 0.11 q -0.09,-0.71 -0.13,-1.59 -0.04,-0.88 0,-2 v -22.85 h 2.88 v 30.81 h -3 z m 24.28,0 v -3.74 h -0.09 a 7.35,7.35 0 0 1 -6.94,4.25 q -7.84,0 -7.84,-9.58 v -12.93 h 2.75 v 12.42 q 0,4 1.41,5.84 a 5,5 0 0 0 4.31,1.89 6,6 0 0 0 2.59,-0.55 5.91,5.91 0 0 0 2,-1.55 7.25,7.25 0 0 0 1.32,-2.4 9.61,9.61 0 0 0 0.47,-3.09 v -12.56 h 2.75 v 22 h -2.75 z m 32.32,-2.13 a 20.24,20.24 0 0 1 -10.05,2.66 15,15 0 0 1 -6,-1.15 13,13 0 0 1 -4.53,-3.2 14.11,14.11 0 0 1 -2.87,-4.9 18.8,18.8 0 0 1 -1,-6.26 19.15,19.15 0 0 1 0.48,-4.34 17,17 0 0 1 1.42,-3.91 15.06,15.06 0 0 1 2.29,-3.31 14.31,14.31 0 0 1 3.1,-2.56 14.9,14.9 0 0 1 3.86,-1.65 17,17 0 0 1 4.53,-0.58 19.51,19.51 0 0 1 8.16,1.63 v 3.16 a 17.27,17.27 0 0 0 -8.51,-2.19 12.2,12.2 0 0 0 -5.09,1 11.39,11.39 0 0 0 -3.88,2.84 12.9,12.9 0 0 0 -2.48,4.26 16.08,16.08 0 0 0 -0.9,5.34 17,17 0 0 0 0.78,5.29 11.83,11.83 0 0 0 2.27,4.18 10.36,10.36 0 0 0 3.72,2.75 12.42,12.42 0 0 0 5.11,1 13.53,13.53 0 0 0 6.79,-1.63 v -9.39 h -7 v -2.6 h 9.86 v 13.56 z m 7.38,-8.38 a 12.32,12.32 0 0 0 0.54,3.63 7.69,7.69 0 0 0 1.48,2.73 6.36,6.36 0 0 0 2.35,1.71 7.89,7.89 0 0 0 3.13,0.59 11.19,11.19 0 0 0 7,-2.6 v 2.71 a 12.81,12.81 0 0 1 -7.65,2.26 10.1,10.1 0 0 1 -4,-0.77 8.32,8.32 0 0 1 -3.07,-2.25 10.25,10.25 0 0 1 -2,-3.62 16.05,16.05 0 0 1 -0.69,-4.9 13.51,13.51 0 0 1 0.84,-4.58 11.29,11.29 0 0 1 2.08,-3.64 9.61,9.61 0 0 1 3.16,-2.41 9.17,9.17 0 0 1 4,-0.87 9,9 0 0 1 3.76,0.74 7.38,7.38 0 0 1 2.74,2.12 9.59,9.59 0 0 1 1.69,3.35 15.7,15.7 0 0 1 0.58,4.43 v 1.38 h -15.9 z m 13.06,-2.41 a 8.38,8.38 0 0 0 -1.63,-5.33 5.36,5.36 0 0 0 -4.36,-1.89 6.7,6.7 0 0 0 -2.59,0.49 6.16,6.16 0 0 0 -2.09,1.43 7.7,7.7 0 0 0 -1.46,2.29 11.42,11.42 0 0 0 -0.83,3 h 13 z m 17.07,12.65 a 6.82,6.82 0 0 1 -3.09,0.71 q -5.33,0 -5.33,-6.14 v -13.89 h -3.87 v -2.41 h 3.87 v -5.54 l 2.75,-0.9 v 6.44 h 5.67 v 2.41 h -5.67 v 13.47 a 5.51,5.51 0 0 0 0.73,3.22 2.87,2.87 0 0 0 2.47,1 4.45,4.45 0 0 0 2.47,-0.77 v 2.43 z m 65.19,0.27 v -12.68 q 0,-7.45 -5.41,-7.46 a 6.24,6.24 0 0 0 -2.66,0.57 6.39,6.39 0 0 0 -2.12,1.57 7.41,7.41 0 0 0 -1.4,2.4 8.68,8.68 0 0 0 -0.5,3 v 12.6 h -2.75 v -22 h 2.75 v 3.82 h 0.09 a 8,8 0 0 1 7.37,-4.34 6.65,6.65 0 0 1 5.5,2.34 q 1.89,2.34 1.89,6.77 v 13.41 h -2.75 z m 11.5,-3.54 v 13.66 h -2.75 v -32.12 h 2.75 v 4.21 h 0.11 a 8.74,8.74 0 0 1 3.28,-3.51 9.55,9.55 0 0 1 8.4,-0.45 7.82,7.82 0 0 1 2.81,2.16 9.79,9.79 0 0 1 1.76,3.39 15.3,15.3 0 0 1 0.61,4.49 17,17 0 0 1 -0.69,5 11.47,11.47 0 0 1 -2,3.86 9,9 0 0 1 -3.13,2.5 9.35,9.35 0 0 1 -4.14,0.89 7.48,7.48 0 0 1 -6.94,-4.06 h -0.09 z m 0,-5.61 a 7.84,7.84 0 0 0 0.5,2.83 7.31,7.31 0 0 0 1.41,2.32 6.54,6.54 0 0 0 2.18,1.58 6.76,6.76 0 0 0 2.83,0.58 6.33,6.33 0 0 0 3,-0.7 6.52,6.52 0 0 0 2.27,-2 9.63,9.63 0 0 0 1.44,-3.12 15.34,15.34 0 0 0 0.5,-4.08 12,12 0 0 0 -0.47,-3.49 7.92,7.92 0 0 0 -1.34,-2.65 5.82,5.82 0 0 0 -2.11,-1.68 6.42,6.42 0 0 0 -2.76,-0.58 7.31,7.31 0 0 0 -3.09,0.63 7,7 0 0 0 -2.34,1.73 7.67,7.67 0 0 0 -1.48,2.57 9.39,9.39 0 0 0 -0.52,3.13 v 2.92 z m 49.53,9.15 v -12.93 a 15.75,15.75 0 0 0 -0.3,-3.34 5.83,5.83 0 0 0 -0.93,-2.22 3.64,3.64 0 0 0 -1.61,-1.25 6.34,6.34 0 0 0 -2.33,-0.39 4.8,4.8 0 0 0 -2.28,0.57 6,6 0 0 0 -1.88,1.56 7.61,7.61 0 0 0 -1.27,2.35 9,9 0 0 0 -0.46,2.92 v 12.73 h -2.75 v -13.21 q 0,-6.92 -5.31,-6.92 a 4.86,4.86 0 0 0 -2.28,0.55 5.67,5.67 0 0 0 -1.83,1.58 7.35,7.35 0 0 0 -1.19,2.33 10,10 0 0 0 -0.44,3.06 v 12.61 h -2.75 v -22 h 2.75 v 3.57 h 0.09 a 7.37,7.37 0 0 1 6.77,-4.08 6.69,6.69 0 0 1 2.19,0.35 6.36,6.36 0 0 1 1.85,1 6.47,6.47 0 0 1 1.41,1.51 6.83,6.83 0 0 1 0.89,1.93 8.83,8.83 0 0 1 3,-3.57 7.46,7.46 0 0 1 4.2,-1.22 q 7.24,0 7.24,8.94 v 13.57 h -2.75 z m 57.58,0 v -30.81 h 8.42 a 10.8,10.8 0 0 1 3.45,0.52 7.74,7.74 0 0 1 2.62,1.45 6.28,6.28 0 0 1 1.66,2.25 7,7 0 0 1 0.58,2.88 8.26,8.26 0 0 1 -0.37,2.49 7.43,7.43 0 0 1 -1.05,2.12 7,7 0 0 1 -1.69,1.65 8.44,8.44 0 0 1 -2.27,1.11 v 0.09 a 8.43,8.43 0 0 1 2.81,0.75 7.1,7.1 0 0 1 2.17,1.57 6.86,6.86 0 0 1 1.4,2.27 8,8 0 0 1 0.49,2.85 8.83,8.83 0 0 1 -0.71,3.58 8.18,8.18 0 0 1 -2,2.79 9,9 0 0 1 -3,1.82 11.25,11.25 0 0 1 -3.89,0.64 h -8.62 z m 2.86,-28.19 v 10.94 h 4 a 9.22,9.22 0 0 0 2.84,-0.41 6.22,6.22 0 0 0 2.17,-1.18 5.19,5.19 0 0 0 1.39,-1.87 6.06,6.06 0 0 0 0.48,-2.47 q 0,-5 -6.23,-5 h -4.64 z m 0,13.51 v 12.08 h 5.31 a 7.75,7.75 0 0 0 5.25,-1.6 5.7,5.7 0 0 0 1.84,-4.54 q 0,-5.93 -8.06,-5.93 h -4.34 z m 29.66,15.19 a 11.26,11.26 0 0 1 -4.39,-0.82 9.38,9.38 0 0 1 -3.32,-2.31 10.17,10.17 0 0 1 -2.11,-3.58 13.88,13.88 0 0 1 -0.73,-4.62 14.6,14.6 0 0 1 0.77,-4.92 10.35,10.35 0 0 1 2.2,-3.68 9.41,9.41 0 0 1 3.45,-2.31 12.23,12.23 0 0 1 4.51,-0.79 11.24,11.24 0 0 1 4.3,0.78 8.77,8.77 0 0 1 3.24,2.27 10.1,10.1 0 0 1 2,3.61 15.25,15.25 0 0 1 0.71,4.83 14.12,14.12 0 0 1 -0.74,4.69 10.59,10.59 0 0 1 -2.12,3.64 9.37,9.37 0 0 1 -3.35,2.36 11.35,11.35 0 0 1 -4.43,0.86 z m 0.21,-20.65 a 8.25,8.25 0 0 0 -3.27,0.62 6.85,6.85 0 0 0 -2.5,1.82 8.2,8.2 0 0 0 -1.6,2.92 12.75,12.75 0 0 0 -0.56,3.92 11.58,11.58 0 0 0 0.56,3.72 8.37,8.37 0 0 0 1.58,2.84 6.81,6.81 0 0 0 2.48,1.82 8.87,8.87 0 0 0 6.53,0 6.45,6.45 0 0 0 2.41,-1.78 7.85,7.85 0 0 0 1.49,-2.87 13.59,13.59 0 0 0 0.5,-3.87 q 0,-4.45 -2,-6.8 a 7,7 0 0 0 -5.63,-2.33 z m 35.27,20.14 h -2.75 l -4.66,-16.16 a 12,12 0 0 1 -0.34,-2 h -0.09 q 0,0.32 -0.14,0.79 a 9.84,9.84 0 0 1 -0.31,1.12 l -5.15,16.25 h -2.69 l -6.66,-22 h 2.94 l 4.85,17.06 a 9.67,9.67 0 0 1 0.3,1.91 h 0.17 q 0,-0.39 0.14,-0.88 a 10.47,10.47 0 0 1 0.27,-1.05 l 5.33,-17 h 2.28 l 4.77,17.08 a 13.44,13.44 0 0 1 0.32,1.91 h 0.17 a 3.17,3.17 0 0 1 0.09,-0.85 q 0.11,-0.48 0.28,-1.06 l 4.82,-17.12 h 2.77 z m 11.39,-10.51 a 12.3,12.3 0 0 0 0.54,3.63 7.69,7.69 0 0 0 1.48,2.73 6.36,6.36 0 0 0 2.35,1.71 7.9,7.9 0 0 0 3.13,0.59 11.19,11.19 0 0 0 7,-2.6 v 2.71 a 12.82,12.82 0 0 1 -7.65,2.26 10.09,10.09 0 0 1 -4,-0.77 8.32,8.32 0 0 1 -3.07,-2.25 10.23,10.23 0 0 1 -2,-3.62 16,16 0 0 1 -0.69,-4.9 13.5,13.5 0 0 1 0.75,-4.58 11.26,11.26 0 0 1 2.08,-3.64 9.58,9.58 0 0 1 3.16,-2.41 9.17,9.17 0 0 1 4,-0.87 9,9 0 0 1 3.76,0.74 7.38,7.38 0 0 1 2.77,2.12 9.58,9.58 0 0 1 1.69,3.35 15.7,15.7 0 0 1 0.58,4.43 v 1.38 h -15.9 z m 13.06,-2.41 a 8.38,8.38 0 0 0 -1.63,-5.33 5.36,5.36 0 0 0 -4.36,-1.89 6.7,6.7 0 0 0 -2.59,0.49 6.16,6.16 0 0 0 -2.09,1.43 7.73,7.73 0 0 0 -1.49,2.28 11.4,11.4 0 0 0 -0.83,3 h 13 z m 18.55,-6.27 a 4.11,4.11 0 0 0 -2.49,-0.71 4.27,4.27 0 0 0 -1.93,0.42 4.89,4.89 0 0 0 -1.47,1.13 6.76,6.76 0 0 0 -1.11,1.65 11.42,11.42 0 0 0 -0.71,1.94 14.07,14.07 0 0 0 -0.39,2 17.13,17.13 0 0 0 -0.12,2 v 10.76 h -2.73 v -22 h 2.73 v 4.71 h 0.09 a 9.77,9.77 0 0 1 1,-2.16 6.71,6.71 0 0 1 1.36,-1.61 5.71,5.71 0 0 1 1.69,-1 5.42,5.42 0 0 1 1.92,-0.34 7.48,7.48 0 0 1 1.19,0.09 4.59,4.59 0 0 1 1,0.26 v 2.88 z m 73.67,17.06 a 20.24,20.24 0 0 1 -10.05,2.66 15,15 0 0 1 -6,-1.15 13,13 0 0 1 -4.53,-3.2 14.12,14.12 0 0 1 -2.87,-4.9 18.8,18.8 0 0 1 -1,-6.26 19.15,19.15 0 0 1 0.48,-4.34 17,17 0 0 1 1.42,-3.91 15,15 0 0 1 2.29,-3.31 14.32,14.32 0 0 1 3.1,-2.56 14.89,14.89 0 0 1 3.86,-1.65 17,17 0 0 1 4.53,-0.58 19.51,19.51 0 0 1 8.1,1.64 v 3.16 a 17.27,17.27 0 0 0 -8.51,-2.19 12.2,12.2 0 0 0 -5.09,1 11.4,11.4 0 0 0 -3.88,2.84 12.9,12.9 0 0 0 -2.48,4.26 16.05,16.05 0 0 0 -0.9,5.34 17,17 0 0 0 0.74,5.27 11.83,11.83 0 0 0 2.27,4.18 10.36,10.36 0 0 0 3.72,2.75 12.42,12.42 0 0 0 5.11,1 13.53,13.53 0 0 0 6.79,-1.63 v -9.39 h -7 v -2.6 h 9.86 v 13.56 z m 20.43,2.13 v -3.74 h -0.1 a 7.35,7.35 0 0 1 -6.94,4.25 q -7.84,0 -7.84,-9.58 v -12.93 h 2.78 v 12.42 q 0,4 1.41,5.84 a 5,5 0 0 0 4.31,1.89 6,6 0 0 0 2.59,-0.55 5.92,5.92 0 0 0 2,-1.55 7.25,7.25 0 0 0 1.32,-2.4 9.59,9.59 0 0 0 0.47,-3.09 v -12.56 h 2.75 v 22 z m 9.22,0 v -32.57 h 2.75 v 32.57 z m 12,-3.54 v 13.66 h -2.75 v -32.12 h 2.75 v 4.21 h 0.09 a 8.75,8.75 0 0 1 3.28,-3.51 9.55,9.55 0 0 1 8.4,-0.45 7.8,7.8 0 0 1 2.81,2.16 9.78,9.78 0 0 1 1.76,3.39 15.3,15.3 0 0 1 0.61,4.49 17,17 0 0 1 -0.69,5 11.49,11.49 0 0 1 -2,3.86 9,9 0 0 1 -3.13,2.5 9.35,9.35 0 0 1 -4.13,0.89 7.48,7.48 0 0 1 -6.94,-4.06 h -0.08 z m 0,-5.61 a 7.86,7.86 0 0 0 0.5,2.83 7.34,7.34 0 0 0 1.41,2.32 6.55,6.55 0 0 0 2.18,1.58 6.76,6.76 0 0 0 2.83,0.58 6.33,6.33 0 0 0 3,-0.7 6.53,6.53 0 0 0 2.27,-2 9.61,9.61 0 0 0 1.44,-3.12 15.3,15.3 0 0 0 0.51,-4.08 12,12 0 0 0 -0.47,-3.49 7.94,7.94 0 0 0 -1.34,-2.65 5.81,5.81 0 0 0 -2.11,-1.68 6.42,6.42 0 0 0 -2.76,-0.58 7.31,7.31 0 0 0 -3.09,0.63 7,7 0 0 0 -2.34,1.73 7.66,7.66 0 0 0 -1.48,2.57 9.39,9.39 0 0 0 -0.52,3.13 v 2.92 z m -584.82,-50.85 h -1 v 90 h 1 z"
     id="path10"
     inkscape:connector-curvature="0"
     style="fill:#ffffff" />
  <rect
     style="fill:#ffffff;fill-opacity:1"
     id="rect17"
     width="605.99548"
     height="87.989975"
     x="400.21249"
     y="61.969429" />
  <path
     style="fill:#7fba00;fill-opacity:1;stroke-width:1.41919315"
     d="M 387.48973,200.07479 V 156.7894 h 302.99775 302.99778 v 43.28539 43.28539 H 690.48748 387.48973 Z"
     id="path19"
     inkscape:connector-curvature="0" />
  <path
     style="fill:#7fba00;fill-opacity:1;stroke-width:1.41919315"
     d="M 400.26248,106.40804 V 63.122646 H 703.26022 1006.258 v 43.285394 43.28539 H 703.26022 400.26248 Z"
     id="path21"
     inkscape:connector-curvature="0" />
  <path
     style="fill:#7fba00;fill-opacity:1;stroke-width:1.41919315"
     d="M -2.7883894,180.20608 V 0.67814558 H 567.01768 1136.8237 V 180.20608 359.73402 H 567.01768 -2.7883894 Z m 390.2155294,24.12629 -0.77626,-45.41418 -0.29017,46.76241 c -0.15959,25.71933 0.18972,46.15571 0.77626,45.41418 0.58652,-0.74152 0.7171,-21.78461 0.29017,-46.76241 z m -78.09603,22.5157 c 2.46951,-3.13947 2.94139,-5.74256 2.94139,-16.22581 v -12.48642 l -4.61238,-0.15592 c -2.53681,-0.0857 -6.18727,-0.18744 -8.11214,-0.22597 -7.36049,-0.14731 -11.42994,12.49821 -6.35412,19.74497 2.46328,3.51683 10.19684,4.37232 13.11803,1.45114 2.08014,-2.08014 2.14891,-1.07371 0.26519,3.88085 -1.30952,3.4443 -2.0061,3.7366 -7.80556,3.27534 -3.96106,-0.31503 -6.36773,0.0785 -6.36773,1.04125 0,2.69292 1.72405,3.43994 7.9391,3.43994 4.84213,0 6.63284,-0.74499 8.98822,-3.73937 z m -89.04135,-6.49835 4.11335,0.11694 -0.4151,-10.18201 c -0.38479,-9.43894 -0.69035,-10.31358 -4.1869,-11.98461 -4.44834,-2.12589 -11.12971,-0.25068 -11.12971,3.12369 0,1.71064 0.73082,1.85093 3.72061,0.71421 2.60841,-0.99172 4.30535,-0.92926 5.67677,0.20891 3.13006,2.59772 2.28172,4.11431 -2.30142,4.11431 -4.37561,0 -9.93435,4.21581 -9.93435,7.53431 0,4.02073 6.0773,8.68565 9.07448,6.96554 0.6979,-0.40052 3.11992,-0.6756 5.38227,-0.61129 z m 63.11226,0.0386 4.74419,0.17835 v -6.96037 c 0,-8.87293 -1.9213,-13.88411 -6.0433,-15.76221 -4.03799,-1.83984 -10.98701,0.44642 -10.98701,3.61477 0,2.53905 0.68043,2.65916 4.24807,0.74982 3.18885,-1.70664 7.10547,-0.45233 7.10547,2.27553 0,1.22059 -1.52512,1.97695 -3.98633,1.97695 -6.59648,0 -9.42462,3.26409 -8.95455,10.33488 0.1747,2.62789 5.59214,5.5145 7.84189,4.17844 0.70806,-0.42049 3.42227,-0.68426 6.03157,-0.58616 z m 51.15987,-2.11296 c 1.1265,-2.93558 -0.15012,-3.55248 -4.18047,-2.02013 -2.63076,1.0002 -4.36635,0.80238 -6.5832,-0.75037 -4.88035,-3.41834 -3.51002,-4.78613 4.795,-4.78613 7.28329,0 7.80556,-0.22687 7.80556,-3.39077 0,-5.37004 -4.52108,-9.85503 -9.93435,-9.85503 -6.0124,0 -9.93435,4.60639 -9.93435,11.66805 0,9.01751 5.03425,13.24086 13.95372,11.70613 1.82037,-0.31321 3.65551,-1.47051 4.07809,-2.57176 z m -144.34001,-3.29905 c 0,-5.38022 0.22578,-5.67678 4.32209,-5.67678 5.21793,0 11.28904,-5.51966 11.28904,-10.26366 0,-1.81319 -0.99417,-4.71609 -2.20926,-6.45087 -1.8229,-2.60254 -3.56029,-3.15417 -9.93435,-3.15417 h -7.7251 v 15.61112 c 0,12.93043 0.36556,15.61113 2.12879,15.61113 1.53746,0 2.12879,-1.57688 2.12879,-5.67677 z m 55.34854,3.08417 c 0,-2.07514 -0.85235,-2.46749 -4.27058,-1.96579 -2.34882,0.34472 -5.22269,-0.16339 -6.38637,-1.12917 -5.35141,-4.44128 0.31895,-15.04892 7.13058,-13.33931 2.57531,0.64636 3.52637,0.31408 3.52637,-1.23206 0,-4.93679 -12.81886,-3.40799 -15.64109,1.86539 -2.08973,3.9047 -1.67119,11.68264 0.82003,15.23937 2.96831,4.23785 14.82106,4.68696 14.82106,0.56157 z m 8.51516,-1.94338 v -4.53597 l 4.67994,4.53597 c 2.57397,2.49478 5.81692,4.53598 7.20655,4.53598 2.01466,0 1.49481,-1.20542 -2.5656,-5.9491 l -5.09221,-5.9491 4.27203,-4.40762 c 4.98395,-5.14213 5.28618,-6.40127 1.5365,-6.40127 -1.50454,0 -4.37132,2.07557 -6.37063,4.61238 l -3.6351,4.61237 -0.0158,-10.28915 c -0.0128,-8.19279 -0.44947,-10.28915 -2.14453,-10.28915 -1.77399,0 -2.12879,2.83839 -2.12879,17.03032 0,14.19193 0.3548,17.03032 2.12879,17.03032 1.44823,0 2.12879,-1.45013 2.12879,-4.53598 z m 98.53255,2.30582 c 4.01213,-4.01212 2.61892,-7.43741 -4.511,-11.0906 -2.53681,-1.29978 -4.61238,-2.91717 -4.61238,-3.59416 0,-1.8407 3.58942,-2.86279 6.95908,-1.98159 2.04435,0.53461 2.97527,0.11197 2.97527,-1.35075 0,-2.96785 -5.52969,-4.10439 -9.86345,-2.02729 -2.68405,1.28644 -3.61888,2.82938 -3.61888,5.97294 0,3.4193 0.89143,4.63083 4.61237,6.26858 7.2009,3.16943 5.24117,8.33096 -2.12879,5.60681 -2.63207,-0.9729 -3.19318,-0.68772 -3.19318,1.62296 0,2.31585 0.96942,2.80326 5.5754,2.80326 3.1763,0 6.53504,-0.95964 7.80556,-2.23016 z m 502.02756,-68.37464 c -83.77702,-0.20223 -220.44532,-0.20221 -303.70735,2e-5 -83.262,0.20224 -14.71716,0.36767 152.32188,0.36766 167.03904,-1e-5 235.1625,-0.16548 151.38547,-0.36768 z m 0,-87.989986 c -83.77702,-0.202214 -220.44532,-0.202201 -303.70735,2.9e-5 -83.262,0.202231 -14.71716,0.367679 152.32188,0.367664 167.03904,-1.7e-5 235.1625,-0.165478 151.38547,-0.367693 z"
     id="path23"
     inkscape:connector-curvature="0" />
  <path
     style="fill:#7fba00;fill-opacity:1;stroke-width:1.41919315"
     d="M -2.7883894,180.20608 V 0.67814558 H 567.01768 1136.8237 V 180.20608 359.73402 H 567.01768 -2.7883894 Z m 389.9197794,6.65345 c -0.23827,-11.46495 -0.4327,-1.68627 -0.43206,21.73042 6.4e-4,23.41669 0.19558,32.79711 0.43322,20.84538 0.23763,-11.95172 0.23711,-31.11083 -10e-4,-42.5758 z m -78.27204,40.74335 c 2.15525,-2.37926 2.80199,-5.65083 3.18889,-16.13105 l 0.48532,-13.14647 -7.58129,-0.1593 c -8.37899,-0.17605 -9.94079,0.45806 -12.33602,5.00862 -2.51124,4.77095 -1.95867,11.47461 1.20674,14.64002 3.15305,3.15305 9.86136,3.76289 12.4889,1.13536 2.06484,-2.06484 2.14929,-1.07471 0.31896,3.73943 -1.20424,3.16741 -2.21835,3.64037 -7.80556,3.64037 -5.99113,0 -7.73321,1.0536 -5.47536,3.31145 0.52036,0.52037 3.61457,0.94613 6.876,0.94613 4.22352,0 6.70785,-0.85882 8.63342,-2.98456 z M 190.22188,214.97632 c 0,-5.38022 0.22578,-5.67678 4.32209,-5.67678 5.35599,0 11.28904,-5.56011 11.28904,-10.57944 0,-5.9257 -4.6249,-9.28926 -12.77274,-9.28926 h -7.09597 v 15.61112 c 0,12.93043 0.36556,15.61113 2.12879,15.61113 1.53746,0 2.12879,-1.57688 2.12879,-5.67677 z m 34.06064,-3.4634 c 0,-11.23692 -1.86804,-13.92033 -9.26956,-13.31557 -3.99176,0.32616 -5.7443,1.17552 -6.07995,2.94662 -0.40715,2.14839 0.0511,2.28964 3.35401,1.03389 2.72239,-1.03504 4.3897,-0.98632 5.78176,0.16899 3.13006,2.59772 2.28172,4.11431 -2.30142,4.11431 -4.1698,0 -9.93435,4.17167 -9.93435,7.18926 0,0.83188 0.65923,2.74428 1.46496,4.2498 1.19377,2.23056 2.90149,2.70419 9.22476,2.55843 l 7.75979,-0.17891 z m 20.94166,6.65658 c 0.38911,-1.18447 -1.01287,-1.77399 -4.21884,-1.77399 -2.64087,0 -5.56796,-0.76636 -6.50463,-1.70303 -4.71562,-4.71563 1.1542,-14.92346 7.64471,-13.29445 2.49466,0.62613 3.425,0.27403 3.425,-1.29621 0,-3.46457 -9.7716,-2.80348 -13.74567,0.92994 -4.32004,4.05849 -4.50775,12.72145 -0.36541,16.86379 3.25127,3.25128 12.72484,3.43982 13.76484,0.27395 z m 8.8614,-2.05239 v -4.53597 l 4.67994,4.53597 c 4.35793,4.22387 8.0928,5.85721 8.0928,3.53915 0,-0.54826 -2.0412,-3.10281 -4.53599,-5.67677 l -4.53596,-4.67995 4.53596,-4.67994 c 5.24973,-5.41634 5.58775,-6.6736 1.79423,-6.6736 -1.50795,0 -4.22215,2.07557 -6.03157,4.61238 l -3.28982,4.61237 -0.70959,-9.60114 c -1.13895,-15.41039 -3.50406,-11.36204 -3.94783,6.75745 -0.34018,13.89025 -0.0755,16.32603 1.77399,16.32603 1.4989,0 2.17384,-1.40836 2.17384,-4.53598 z m 33.78307,-1.35413 c 0.63739,-7.64278 -1.56276,-14.45513 -5.26565,-16.30411 -4.05835,-2.02648 -10.62357,-0.39812 -11.23728,2.78716 -0.38705,2.00874 0.11623,2.16731 3.18085,1.00215 4.25167,-1.61649 7.92287,-0.58039 7.92287,2.23603 0,1.23976 -1.5498,1.97695 -4.15621,1.97695 -5.26066,0 -8.61653,3.3098 -8.61653,8.49827 0,4.86374 1.42196,5.56322 10.64395,5.23591 7.08728,-0.25153 7.09649,-0.25819 7.528,-5.43236 z m 46.83384,2.7702 c 0.38631,-2.03748 -0.19637,-2.22294 -3.76683,-1.19894 -3.02747,0.86827 -5.06283,0.62372 -7.18592,-0.86335 -4.83159,-3.38416 -3.43731,-4.75215 4.84348,-4.75215 7.17645,0 7.80556,-0.26051 7.80556,-3.2322 0,-5.57343 -3.86927,-9.54054 -9.30522,-9.54054 -6.73169,0 -10.56348,4.11838 -10.56348,11.35354 0,7.95911 3.92144,11.64829 11.77389,11.07655 4.2437,-0.30899 6.07212,-1.12136 6.39852,-2.84291 z m 17.96917,0.33439 c 3.25294,-3.59445 2.05366,-6.47977 -4.23568,-10.19058 -5.98371,-3.53047 -5.72653,-6.32875 0.53517,-5.8228 3.18119,0.25703 4.45795,-0.25104 4.45795,-1.77399 0,-2.89347 -10.3598,-2.91283 -12.75744,-0.0238 -2.71621,3.27283 -0.57815,8.6657 4.22423,10.65491 7.07356,2.92997 5.58643,6.392 -2.46554,5.73978 -2.06661,-0.1674 -3.19318,0.52823 -3.19318,1.97169 0,3.42136 10.21792,2.99911 13.43449,-0.55516 z M 712.8988,150.06339 c -4.84602,-0.27628 -13.1483,-0.27832 -18.44951,-0.004 -5.30123,0.2738 -1.3363,0.49985 8.81093,0.50234 10.14723,0.003 14.48459,-0.22154 9.63858,-0.49783 z m 75.15822,-88.004929 c -47.02852,-0.207442 -123.98427,-0.207442 -171.01278,0 -47.02852,0.207441 -8.55064,0.377165 85.50639,0.377165 94.05702,0 132.5349,-0.169724 85.50639,-0.377165 z"
     id="path25"
     inkscape:connector-curvature="0" />
  <path
     style="fill:#7fba00;fill-opacity:1;stroke-width:1.41919315"
     d="m 686.5847,62.063208 c 8.78126,-0.248994 23.15059,-0.248994 31.93185,0 8.78126,0.248994 1.59659,0.452716 -15.96592,0.452716 -17.56252,0 -24.74719,-0.203722 -15.96593,-0.452716 z"
     id="path27"
     inkscape:connector-curvature="0" />
  <flowRoot
     xml:space="preserve"
     id="flowRoot29"
     style="font-style:normal;font-weight:normal;font-size:40px;line-height:1.25;font-family:sans-serif;letter-spacing:0px;word-spacing:0px;fill:#000000;fill-opacity:1;stroke:none"><flowRegion
       id="flowRegion31"><rect
         id="rect33"
         width="603.1571"
         height="63.863693"
         x="438.5307"
         y="176.92407" /></flowRegion><flowPara
       id="flowPara35">*.dbf    *.zip    *.7z</flowPara></flowRoot></svg>
