<?xml version="1.0" encoding="UTF-8" standalone="no"?>
<svg
   xmlns:dc="http://purl.org/dc/elements/1.1/"
   xmlns:cc="http://creativecommons.org/ns#"
   xmlns:rdf="http://www.w3.org/1999/02/22-rdf-syntax-ns#"
   xmlns:svg="http://www.w3.org/2000/svg"
   xmlns="http://www.w3.org/2000/svg"
   xmlns:sodipodi="http://sodipodi.sourceforge.net/DTD/sodipodi-0.dtd"
   xmlns:inkscape="http://www.inkscape.org/namespaces/inkscape"
   viewBox="0 0 1140 360"
   enable-background="new 0 0 1140 360"
   version="1.1"
   id="svg449"
   sodipodi:docname="banner4.svg"
   inkscape:version="0.92.2 (5c3e80d, 2017-08-06)">
  <metadata
     id="metadata455">
    <rdf:RDF>
      <cc:Work
         rdf:about="">
        <dc:format>image/svg+xml</dc:format>
        <dc:type
           rdf:resource="http://purl.org/dc/dcmitype/StillImage" />
        <dc:title></dc:title>
      </cc:Work>
    </rdf:RDF>
  </metadata>
  <defs
     id="defs453" />
  <sodipodi:namedview
     pagecolor="#ffffff"
     bordercolor="#666666"
     borderopacity="1"
     objecttolerance="10"
     gridtolerance="10"
     guidetolerance="10"
     inkscape:pageopacity="0"
     inkscape:pageshadow="2"
     inkscape:window-width="1600"
     inkscape:window-height="837"
     id="namedview451"
     showgrid="false"
     inkscape:zoom="0.99649123"
     inkscape:cx="485.2018"
     inkscape:cy="146.14966"
     inkscape:window-x="-8"
     inkscape:window-y="-8"
     inkscape:window-maximized="1"
     inkscape:current-layer="svg449" />
  <path
     d="M0 0h1140v360h-1140v-360z"
     id="path381"
     style="fill:#ed1944;fill-opacity:0.96482414"
     fill="#1D4380" />
  <path
     d="m 402.3429,111.41915 c -6.343,4.851 -13.817,7.213 -21.238,7.213 -10.53,0 -20.943,-4.727 -27.824,-13.727 -11.757,-15.350004 -8.855,-37.302004 6.522,-49.064004 6.342,-4.88 13.824,-7.209 21.235,-7.209 10.53,0 20.945,4.727 27.824,13.735 11.76,15.345 8.83,37.302 -6.519,49.052004"
     id="path385"
     inkscape:connector-curvature="0"
     style="fill:#59b4d9" />
  <path
     d="m 395.9119,89.769146 c 2.543,3.316 7.262,3.915 10.56,1.406 0.172,-0.132 0.305,-0.291 0.462,-0.433 3.373,2.376 5.716,3.945 7.036,4.844 0.391,-1.012 0.661,-1.984 0.938,-2.999 -1.395,-1.038 -3.281,-2.49 -6.007,-4.699 0.895,-2.352 0.612,-5.097 -1.022,-7.241 -2.337,-3.025 -6.478,-3.793 -9.712,-1.928 -3.565,-3.198 -7.482,-6.864 -11.613,-10.968 12.834,-6.902 21.951,-5.891 21.951,-5.891 -1.522,-1.941 -3.228,-3.641 -5.049,-5.177 -5.412,-0.836 -13.819,-0.742 -23.425,4.367 l -0.003,-0.004 h -10e-4 c -3.201,-3.351 -6.459,-6.943 -9.778,-10.799 -1.588,0.508 -3.139,1.137 -4.638,1.886 2.449,4.008 5.744,8.05 9.457,11.993 l 0.024,0.024 c -3.096,2.165 -6.544,5.059 -9.724,8.423 -0.406,0.433 -0.797,0.868 -1.179,1.304 -1.9,-0.398 -3.898,-0.281 -5.765,0.395 -3.17,-6.84 -2.915,-12.335 -2.414,-15.168 -1.376,1.442 -2.662,2.959 -3.77,4.575 -0.828,3.382 -1.063,8.259 1.379,14.136 -2.827,3.7 -2.96,8.946 -0.007,12.817 0.246,0.321 0.51,0.619 0.783,0.903 -1.29,4.393 -1.867,8.630004 -2.044,12.268004 l 0.661,1.255 c 1.679,2.154 3.788,3.968 5.825,5.612 -0.252,-3.851 0.02,-9.53 2.4,-15.924004 1.643,0.125 3.313,-0.134 4.877,-0.793 0.896,0.788 1.834,1.585 2.836,2.396 3.435,2.719 6.861,4.835004 10.201,6.502004 -0.174,1.699 0.252,3.464 1.355,4.926 2.359,3.047 6.728,3.616 9.778,1.287 0.634,-0.486 1.136,-1.073 1.552,-1.703 5.446,1.213 10.204,1.427 13.731,1.427 0.541,0 3.048,-3.411 4.485,-5.526 -2.148,0.449 -8.518,1.325 -17.223,-1.176 -0.21,-0.977 -0.612,-1.927 -1.257,-2.773004 -2.211,-2.899 -6.254,-3.526 -9.267,-1.587 -3.026,-1.641 -6.195,-3.698 -9.463,-6.287 -0.66,-0.522 0.373,-12.815 -0.238,-13.338 1.997,-3.146 0.545,4.593 -1.22,1.2 0.401,-0.4 0.794,-0.802 1.22,-1.2 3.236,-3.023 6.28,-5.443 9.128,-7.385 l -0.33,-0.326 0.335,0.318 -0.003,0.001 c 4.37,4.041 -1.03121,9.87804 3.35679,13.30004 -1.162,2.461 9.05521,3.45196 10.82121,5.75996 z"
     id="path387"
     inkscape:connector-curvature="0"
     style="fill:#ffffff"
     sodipodi:nodetypes="ccccccccccccccccccccccccccccccccccccscccccccccccccc" />
  <path
     d="m 508.1529,118.63115 c -1.725,0 -3.349,-0.672 -4.565,-1.893 l -28.544,-28.543004 c -1.203,-1.203 -1.891,-2.864 -1.891,-4.565 0,-1.7 0.689,-3.363 1.891,-4.564 l 28.544,-28.543 c 1.219,-1.221 2.841,-1.893 4.565,-1.893 1.723,0 3.346,0.672 4.565,1.893 l 28.54,28.543 c 1.222,1.215 1.893,2.838 1.893,4.564 0,1.726 -0.671,3.349 -1.894,4.568 l -28.538,28.540004 c -1.219,1.221 -2.843,1.893 -4.566,1.893"
     id="path389"
     inkscape:connector-curvature="0"
     style="fill:#55add3" />
  <path
     d="m 527.2109,78.161146 c -3.024,0 -5.474,2.45 -5.474,5.472 0,1.109 0.335,2.138 0.903,3 l -10.841,10.841 c -0.288,-0.202 -0.598,-0.37 -0.918,-0.522 v -27.658 c 1.634,-0.946 2.745,-2.694 2.745,-4.718 0,-3.023 -2.45,-5.472 -5.474,-5.472 -3.021,0 -5.471,2.45 -5.471,5.472 0,2.024 1.112,3.772 2.744,4.718 v 27.658 c -0.307,0.146 -0.608,0.302 -0.885,0.494 l -10.854,-10.854 c 0.552,-0.854 0.879,-1.866 0.879,-2.958 0,-3.023 -2.45,-5.472 -5.471,-5.472 -3.024,0 -5.474,2.45 -5.474,5.472 0,3.023 2.45,5.472 5.474,5.472 0.627,0 1.221,-0.127 1.784,-0.322 l 11.41,11.410004 c -0.328,0.767 -0.51,1.61 -0.51,2.496 0,3.518 2.853,6.371 6.371,6.371 3.52,0 6.371,-2.853 6.371,-6.371 0,-0.869 -0.176,-1.697 -0.491,-2.451 l 11.442,-11.441004 c 0.549,0.185 1.126,0.308 1.737,0.308 3.021,0 5.471,-2.45 5.471,-5.472 0,-3.023 -2.448,-5.473 -5.468,-5.473 z"
     id="path391"
     inkscape:connector-curvature="0"
     style="fill:#ffffff" />
  <rect
     x="311.8587"
     y="404.89526"
     transform="rotate(-45)"
     width="3.5314667"
     height="28.941628"
     id="rect393"
     style="opacity:0.5;fill:#ffffff;stroke-width:0.99984896;enable-background:new" />
  <rect
     x="284.78152"
     y="403.13818"
     transform="rotate(-45)"
     width="28.942629"
     height="3.5324664"
     id="rect395"
     style="opacity:0.5;fill:#ffffff;stroke-width:0.99984896;enable-background:new" />
  <path
     d="m 511.8829,102.69015 c 0,2.094 -1.7,3.793 -3.794,3.793 -2.096,0 -3.793,-1.698 -3.793,-3.793 0,-2.095 1.697,-3.793004 3.793,-3.793004 2.093,0 3.794,1.699004 3.794,3.793004"
     id="path397"
     inkscape:connector-curvature="0"
     style="fill:#b8d432" />
  <path
     d="m 511.1949,64.576146 c 0,1.681 -1.362,3.044 -3.044,3.044 -1.681,0 -3.044,-1.362 -3.044,-3.044 0,-1.682 1.362,-3.044 3.044,-3.044 1.682,0 3.044,1.362 3.044,3.044"
     id="path399"
     inkscape:connector-curvature="0"
     style="fill:#b8d432" />
  <path
     d="m 492.1399,83.632146 c 0,1.681 -1.365,3.044 -3.044,3.044 -1.681,0 -3.044,-1.362 -3.044,-3.044 0,-1.682 1.362,-3.044 3.044,-3.044 1.679,0.001 3.044,1.363 3.044,3.044"
     id="path401"
     inkscape:connector-curvature="0"
     style="fill:#b8d432" />
  <path
     d="m 530.2539,83.632146 c 0,1.681 -1.365,3.044 -3.045,3.044 -1.68,0 -3.044,-1.362 -3.044,-3.044 0,-1.682 1.364,-3.044 3.044,-3.044 1.68,0.001 3.045,1.363 3.045,3.044"
     id="path403"
     inkscape:connector-curvature="0"
     style="fill:#b8d432" />
  <path
     d="m 512.7179,50.524146 c -1.219,-1.221 -2.841,-1.893 -4.565,-1.893 -1.723,0 -3.345,0.672 -4.564,1.893 l -28.544,28.543 c -1.204,1.201 -1.893,2.864 -1.893,4.564 0,1.701 0.689,3.364 1.893,4.565 l 16.16,16.161004 30.4,-44.948004 z"
     id="path405"
     inkscape:connector-curvature="0"
     style="opacity:0.1;fill:#6699cc;enable-background:new" />
  <path
     d="m 608.8289,58.194146 v 50.873004 c 0,5.282 11.823,9.564 26.405,9.564 V 58.194146 Z"
     id="path407"
     inkscape:connector-curvature="0"
     style="fill:#3999c6" />
  <path
     d="m 634.8719,118.63015 h 0.362 c 14.582,0 26.405,-4.28 26.405,-9.563 V 58.194146 h -26.767 z"
     id="path409"
     inkscape:connector-curvature="0"
     style="fill:#59b4d9" />
  <path
     d="m 661.6389,58.194146 c 0,5.282 -11.823,9.563 -26.405,9.563 -14.582,0 -26.405,-4.281 -26.405,-9.563 0,-5.282 11.823,-9.563 26.405,-9.563 14.582,0 26.405,4.282 26.405,9.563"
     id="path411"
     inkscape:connector-curvature="0"
     style="fill:#ffffff" />
  <path
     d="m 656.2409,57.643146 c 0,3.487 -9.405,6.31 -21.006,6.31 -11.601,0 -21.008,-2.823 -21.008,-6.31 0,-3.485 9.406,-6.31 21.008,-6.31 11.601,0 21.006,2.825 21.006,6.31"
     id="path413"
     inkscape:connector-curvature="0"
     style="fill:#7fba00" />
  <path
     d="m 651.8399,61.499146 c 2.75,-1.066 4.402,-2.402 4.402,-3.853 0,-3.487 -9.405,-6.311 -21.008,-6.311 -11.601,0 -21.007,2.825 -21.007,6.311 0,1.451 1.653,2.787 4.402,3.853 3.84,-1.491 9.842,-2.453 16.604,-2.453 6.765,10e-4 12.764,0.963 16.607,2.453"
     id="path415"
     inkscape:connector-curvature="0"
     style="fill:#b8d432" />
  <path
     d="m 652.2999,99.444146 c -1.413,1.178004 -3.328,1.769004 -5.815,1.769004 h -8.298 V 79.570146 h 7.871 c 2.478,0 4.377,0.452 5.683,1.389 1.223,0.879 1.836,2.109 1.836,3.68 0,1.252 -0.447,2.317 -1.358,3.254 -0.776,0.775 -1.709,1.31 -2.858,1.624 v 0.051 c 1.543,0.19 2.802,0.778 3.74,1.765 0.878,0.937 1.33,2.086 1.33,3.415 0.005,1.979 -0.716,3.529 -2.131,4.696 m -20.223,-1.275 c -2.077,2.031004 -4.88,3.044004 -8.378,3.044004 h -7.661 V 79.570146 h 7.661 c 7.685,0 11.528,3.498 11.528,10.538 0,3.365 -1.039,6.059 -3.15,8.061"
     id="path417"
     inkscape:connector-curvature="0"
     style="fill:#ffffff" />
  <path
     d="m 623.2989,83.520146 h -2.401 v 13.741 h 2.429 c 2.134,0 3.788,-0.668 5.012,-1.948 1.172,-1.281 1.765,-2.988 1.765,-5.148 0,-2.027 -0.593,-3.625 -1.738,-4.808 -1.201,-1.223 -2.882,-1.837 -5.067,-1.837"
     id="path419"
     inkscape:connector-curvature="0"
     style="fill:#3999c6" />
  <path
     d="m 647.5499,87.553146 c 0.586,-0.51 0.879,-1.178 0.879,-2.006 0,-1.605 -1.172,-2.403 -3.55,-2.403 h -1.834 v 5.128 h 2.16 c 0.987,0 1.787,-0.247 2.345,-0.719"
     id="path421"
     inkscape:connector-curvature="0"
     style="fill:#59b4d9" />
  <path
     d="m 648.3519,92.643146 c -0.642,-0.478 -1.516,-0.747 -2.644,-0.747 h -2.667 v 5.708 h 2.641 c 1.123,0 2.027,-0.266 2.695,-0.8 0.613,-0.535 0.931,-1.224 0.931,-2.134 0.006,-0.854 -0.314,-1.548 -0.956,-2.027"
     id="path423"
     inkscape:connector-curvature="0"
     style="fill:#59b4d9" />
  <path
     d="m 727.3169,110.79115 c 0,1.4 0.98,2.66 2.66,2.66 h 64.68 c 1.4,0 2.66,-0.98 2.66,-2.66 V 64.451146 h -70 z"
     id="path425"
     inkscape:connector-curvature="0"
     style="fill:#a0a1a2" />
  <path
     d="m 794.6569,53.811146 h -64.68 c -1.68,0 -2.66,1.26 -2.66,2.66 v 7.98 h 70 v -7.98 c 0,-1.4 -0.98,-2.66 -2.66,-2.66"
     id="path427"
     inkscape:connector-curvature="0"
     style="fill:#7a7a7a" />
  <rect
     x="753.6369"
     y="69.071129"
     width="17.639999"
     height="10.64"
     id="rect429"
     style="fill:#ffffff" />
  <rect
     x="753.6369"
     y="83.491142"
     width="17.639999"
     height="10.64"
     id="rect431"
     style="fill:#fcd116" />
  <rect
     x="774.6369"
     y="83.491142"
     width="17.639999"
     height="10.64"
     id="rect433"
     style="fill:#fcd116" />
  <rect
     x="774.6369"
     y="69.071129"
     width="17.639999"
     height="10.64"
     id="rect435"
     style="fill:#ffffff" />
  <rect
     x="732.6369"
     y="69.071129"
     width="17.639999"
     height="10.64"
     id="rect437"
     style="fill:#ffffff" />
  <rect
     x="732.6369"
     y="83.491142"
     width="17.639999"
     height="10.64"
     id="rect439"
     style="fill:#ffffff" />
  <rect
     x="732.6369"
     y="97.771141"
     width="17.639999"
     height="10.64"
     id="rect441"
     style="fill:#fcd116" />
  <rect
     x="753.6369"
     y="97.771141"
     width="17.639999"
     height="10.64"
     id="rect443"
     style="fill:#fcd116" />
  <rect
     x="774.6369"
     y="97.771141"
     width="17.639999"
     height="10.64"
     id="rect445"
     style="fill:#fcd116" />
  <g
     id="g458"
     transform="translate(-188.3831,-17.059854)">
    <path
       id="path447"
       d="m 924.66,70.871 c -1.26,0 -2.66,1.26 -2.66,2.66 v 54.32 c 0,1.4 1.4,2.66 2.66,2.66 h 2.94 l 55.44,-59.64 z"
       inkscape:connector-curvature="0"
       style="opacity:0.2;fill:#ffffff;enable-background:new" />
  </g>
  <path
     style="opacity:0;fill:#ff00ff;fill-opacity:0;stroke:#000000;stroke-width:1;stroke-opacity:1"
     d="M -6.6663186e-4,179.8503 V 0.22002048 H 569.99933 1139.9993 V 179.8503 359.48058 H 569.99933 -6.6663186e-4 Z M 396.4713,115.36496 c 7.13876,-3.50316 12.4131,-8.76998 16.26741,-16.244243 2.81124,-5.451535 3.13723,-7.003703 3.17644,-15.124391 0.0397,-8.232971 -0.25144,-9.64918 -3.22747,-15.697467 -5.7087,-11.601932 -16.35888,-18.747865 -29.32406,-19.675519 -8.97883,-0.642434 -16.3001,1.585822 -23.84477,7.257245 -20.40229,15.336689 -17.27292,47.561835 5.75568,59.269775 5.92587,3.01278 8.22924,3.43659 17.14748,3.15508 6.9294,-0.21873 9.67309,-0.79298 14.04929,-2.94048 z m 130.80652,-12.71381 c 13.91379,-13.934214 15.96095,-16.393597 15.96095,-19.17494 0,-2.78656 -2.03044,-5.210014 -16.03505,-19.13887 -13.32588,-13.2538 -16.52745,-15.948306 -18.94957,-15.948306 -2.42869,0 -5.6385,2.723969 -19.25545,16.340919 -12.03261,12.032614 -16.34092,16.975353 -16.34092,18.747256 0,1.766999 4.32212,6.757256 16.26756,18.782321 13.94043,14.03334 16.70558,16.37598 19.32955,16.37598 2.61744,0 5.37921,-2.32062 19.02293,-15.98436 z m 126.50183,13.60182 c 2.20022,-0.95003 5.02262,-2.68767 6.27201,-3.86141 2.2496,-2.11339 2.27162,-2.39325 2.27162,-28.879286 0,-26.537283 -0.0178,-26.761915 -2.2865,-28.893265 -4.62482,-4.344796 -10.28023,-5.627694 -24.80857,-5.627694 -14.52835,0 -20.18375,1.282898 -24.80858,5.627694 -2.26638,2.129162 -2.28649,2.378393 -2.28649,28.343143 0,31.370688 -0.21308,30.763458 12.03654,34.301958 6.60257,1.90726 28.3676,1.25248 33.60997,-1.01114 z M 797.56359,84.637714 c 0.18895,-20.173336 -0.0663,-28.879807 -0.87551,-29.854754 -1.56198,-1.882071 -67.06173,-2.045589 -68.93523,-0.172095 -0.87763,0.877629 -1.20422,8.612043 -1.20422,28.518278 0,15.022727 0.27633,28.034147 0.61406,28.914277 0.54842,1.42915 4.33054,1.57204 35.37412,1.33648 l 34.76006,-0.26375 z"
     id="path4534"
     inkscape:connector-curvature="0" />
  <path
     style="opacity:0;fill:#ff00ff;fill-opacity:0;stroke:#000000;stroke-width:1;stroke-opacity:1"
     d="M -6.6663186e-4,179.8503 V 0.22002048 H 569.99933 1139.9993 V 179.8503 359.48058 H 569.99933 -6.6663186e-4 Z M 396.4713,115.36496 c 7.13876,-3.50316 12.4131,-8.76998 16.26741,-16.244243 2.81124,-5.451535 3.13723,-7.003703 3.17644,-15.124391 0.0397,-8.232971 -0.25144,-9.64918 -3.22747,-15.697467 -5.7087,-11.601932 -16.35888,-18.747865 -29.32406,-19.675519 -8.97883,-0.642434 -16.3001,1.585822 -23.84477,7.257245 -20.40229,15.336689 -17.27292,47.561835 5.75568,59.269775 5.92587,3.01278 8.22924,3.43659 17.14748,3.15508 6.9294,-0.21873 9.67309,-0.79298 14.04929,-2.94048 z m 130.80652,-12.71381 c 13.91379,-13.934214 15.96095,-16.393597 15.96095,-19.17494 0,-2.78656 -2.03044,-5.210014 -16.03505,-19.13887 -13.32588,-13.2538 -16.52745,-15.948306 -18.94957,-15.948306 -2.42869,0 -5.6385,2.723969 -19.25545,16.340919 -12.03261,12.032614 -16.34092,16.975353 -16.34092,18.747256 0,1.766999 4.32212,6.757256 16.26756,18.782321 13.94043,14.03334 16.70558,16.37598 19.32955,16.37598 2.61744,0 5.37921,-2.32062 19.02293,-15.98436 z m 126.50183,13.60182 c 2.20022,-0.95003 5.02262,-2.68767 6.27201,-3.86141 2.2496,-2.11339 2.27162,-2.39325 2.27162,-28.879286 0,-26.537283 -0.0178,-26.761915 -2.2865,-28.893265 -4.62482,-4.344796 -10.28023,-5.627694 -24.80857,-5.627694 -14.52835,0 -20.18375,1.282898 -24.80858,5.627694 -2.26638,2.129162 -2.28649,2.378393 -2.28649,28.343143 0,31.370688 -0.21308,30.763458 12.03654,34.301958 6.60257,1.90726 28.3676,1.25248 33.60997,-1.01114 z M 797.56359,84.637714 c 0.18895,-20.173336 -0.0663,-28.879807 -0.87551,-29.854754 -1.56198,-1.882071 -67.06173,-2.045589 -68.93523,-0.172095 -0.87763,0.877629 -1.20422,8.612043 -1.20422,28.518278 0,15.022727 0.27633,28.034147 0.61406,28.914277 0.54842,1.42915 4.33054,1.57204 35.37412,1.33648 l 34.76006,-0.26375 z"
     id="path4536"
     inkscape:connector-curvature="0" />
  <path
     style="opacity:0;fill:#ff00ff;fill-opacity:0;stroke:#000000;stroke-width:1;stroke-opacity:1"
     d="M -6.6663186e-4,179.8503 V 0.22002048 H 569.99933 1139.9993 V 179.8503 359.48058 H 569.99933 -6.6663186e-4 Z M 396.4713,115.36496 c 7.13876,-3.50316 12.4131,-8.76998 16.26741,-16.244243 2.81124,-5.451535 3.13723,-7.003703 3.17644,-15.124391 0.0397,-8.232971 -0.25144,-9.64918 -3.22747,-15.697467 -5.7087,-11.601932 -16.35888,-18.747865 -29.32406,-19.675519 -8.97883,-0.642434 -16.3001,1.585822 -23.84477,7.257245 -20.40229,15.336689 -17.27292,47.561835 5.75568,59.269775 5.92587,3.01278 8.22924,3.43659 17.14748,3.15508 6.9294,-0.21873 9.67309,-0.79298 14.04929,-2.94048 z m 130.80652,-12.71381 c 13.91379,-13.934214 15.96095,-16.393597 15.96095,-19.17494 0,-2.78656 -2.03044,-5.210014 -16.03505,-19.13887 -13.32588,-13.2538 -16.52745,-15.948306 -18.94957,-15.948306 -2.42869,0 -5.6385,2.723969 -19.25545,16.340919 -12.03261,12.032614 -16.34092,16.975353 -16.34092,18.747256 0,1.766999 4.32212,6.757256 16.26756,18.782321 13.94043,14.03334 16.70558,16.37598 19.32955,16.37598 2.61744,0 5.37921,-2.32062 19.02293,-15.98436 z m 126.50183,13.60182 c 2.20022,-0.95003 5.02262,-2.68767 6.27201,-3.86141 2.2496,-2.11339 2.27162,-2.39325 2.27162,-28.879286 0,-26.537283 -0.0178,-26.761915 -2.2865,-28.893265 -4.62482,-4.344796 -10.28023,-5.627694 -24.80857,-5.627694 -14.52835,0 -20.18375,1.282898 -24.80858,5.627694 -2.26638,2.129162 -2.28649,2.378393 -2.28649,28.343143 0,31.370688 -0.21308,30.763458 12.03654,34.301958 6.60257,1.90726 28.3676,1.25248 33.60997,-1.01114 z M 797.56359,84.637714 c 0.18895,-20.173336 -0.0663,-28.879807 -0.87551,-29.854754 -1.56198,-1.882071 -67.06173,-2.045589 -68.93523,-0.172095 -0.87763,0.877629 -1.20422,8.612043 -1.20422,28.518278 0,15.022727 0.27633,28.034147 0.61406,28.914277 0.54842,1.42915 4.33054,1.57204 35.37412,1.33648 l 34.76006,-0.26375 z"
     id="path4538"
     inkscape:connector-curvature="0" />
  <path
     style="opacity:0;fill:#800000;fill-opacity:0;stroke:#000000;stroke-width:1;stroke-opacity:1"
     d="M -6.6663186e-4,179.8503 V 0.22002048 H 569.99933 1139.9993 V 179.8503 359.48058 H 569.99933 -6.6663186e-4 Z M 396.4713,115.36496 c 7.13876,-3.50316 12.4131,-8.76998 16.26741,-16.244243 2.81124,-5.451535 3.13723,-7.003703 3.17644,-15.124391 0.0397,-8.232971 -0.25144,-9.64918 -3.22747,-15.697467 -5.7087,-11.601932 -16.35888,-18.747865 -29.32406,-19.675519 -8.97883,-0.642434 -16.3001,1.585822 -23.84477,7.257245 -20.40229,15.336689 -17.27292,47.561835 5.75568,59.269775 5.92587,3.01278 8.22924,3.43659 17.14748,3.15508 6.9294,-0.21873 9.67309,-0.79298 14.04929,-2.94048 z m 130.80652,-12.71381 c 13.91379,-13.934214 15.96095,-16.393597 15.96095,-19.17494 0,-2.78656 -2.03044,-5.210014 -16.03505,-19.13887 -13.32588,-13.2538 -16.52745,-15.948306 -18.94957,-15.948306 -2.42869,0 -5.6385,2.723969 -19.25545,16.340919 -12.03261,12.032614 -16.34092,16.975353 -16.34092,18.747256 0,1.766999 4.32212,6.757256 16.26756,18.782321 13.94043,14.03334 16.70558,16.37598 19.32955,16.37598 2.61744,0 5.37921,-2.32062 19.02293,-15.98436 z m 126.50183,13.60182 c 2.20022,-0.95003 5.02262,-2.68767 6.27201,-3.86141 2.2496,-2.11339 2.27162,-2.39325 2.27162,-28.879286 0,-26.537283 -0.0178,-26.761915 -2.2865,-28.893265 -4.62482,-4.344796 -10.28023,-5.627694 -24.80857,-5.627694 -14.52835,0 -20.18375,1.282898 -24.80858,5.627694 -2.26638,2.129162 -2.28649,2.378393 -2.28649,28.343143 0,31.370688 -0.21308,30.763458 12.03654,34.301958 6.60257,1.90726 28.3676,1.25248 33.60997,-1.01114 z M 797.56359,84.637714 c 0.18895,-20.173336 -0.0663,-28.879807 -0.87551,-29.854754 -1.56198,-1.882071 -67.06173,-2.045589 -68.93523,-0.172095 -0.87763,0.877629 -1.20422,8.612043 -1.20422,28.518278 0,15.022727 0.27633,28.034147 0.61406,28.914277 0.54842,1.42915 4.33054,1.57204 35.37412,1.33648 l 34.76006,-0.26375 z"
     id="path4540"
     inkscape:connector-curvature="0" />
  <path
     style="opacity:0;fill:#800000;fill-opacity:0;stroke:#000000;stroke-width:1;stroke-opacity:1"
     d="M 0.50109393,179.8503 V 0.22002048 H 569.99933 1139.4976 V 179.8503 359.48058 H 569.99933 0.50109393 Z M 395.88842,115.68971 c 7.47764,-3.83137 12.48871,-8.58189 16.12256,-15.28433 3.30342,-6.092972 3.4461,-6.792396 3.4461,-16.893106 0,-9.81799 -0.20542,-10.911806 -3.01056,-16.030314 -4.01884,-7.333123 -9.01934,-12.186499 -16.16892,-15.693176 -5.25941,-2.579602 -6.95594,-2.89715 -15.442,-2.890353 -11.11484,0.0089 -15.83293,1.795756 -23.9053,9.053512 -7.35439,6.612226 -10.70556,14.62522 -10.71152,25.612376 -0.004,7.873083 0.30075,9.199376 3.69269,16.056335 4.09314,8.274446 9.87123,13.587396 18.60239,17.104916 6.85898,2.76328 21.00448,2.22801 27.37456,-1.03586 z m 131.7021,-12.95016 c 13.12524,-13.192021 15.8155,-16.390797 15.8155,-18.804949 0,-2.42026 -2.73775,-5.650507 -16.29581,-19.227272 -13.76554,-13.784527 -16.75964,-16.318295 -19.28305,-16.318295 -2.51877,0 -5.47124,2.484021 -18.82742,15.840195 -14.29511,14.295116 -15.8402,16.176017 -15.8402,19.283045 0,3.107028 1.54509,4.987928 15.8402,19.283036 14.33895,14.33896 16.16883,15.8402 19.30773,15.8402 3.14281,0 4.94865,-1.48865 19.28305,-15.89596 z m 126.35226,13.45164 c 8.2568,-2.98978 7.94574,-1.6356 7.644,-33.277535 l -0.26703,-28.001733 -6.02112,-3.010564 c -5.82998,-2.91499 -6.46713,-3.010563 -20.07042,-3.010563 -13.6033,0 -14.24045,0.09558 -20.07043,3.010563 l -6.02112,3.010564 v 28.544103 28.544105 l 3.45155,2.01581 c 6.25475,3.65298 11.89719,4.6219 24.64704,4.23241 7.9402,-0.24256 13.63143,-0.94331 16.70753,-2.05716 z M 796.79511,83.512274 V 53.908401 h -34.62148 -34.62148 l -0.26692,28.587482 c -0.14679,15.723114 -0.0458,29.163697 0.22446,29.867957 0.38796,1.01101 7.72985,1.22491 34.88839,1.01639 l 34.39703,-0.26408 z"
     id="path4542"
     inkscape:connector-curvature="0" />
  <path
     style="opacity:0;fill:#800000;fill-opacity:0;stroke:#000000;stroke-width:1;stroke-opacity:1"
     d="M 0.50109393,179.8503 V 0.22002048 H 569.99933 1139.4976 V 179.8503 359.48058 H 569.99933 0.50109393 Z M 395.88842,115.68971 c 7.47764,-3.83137 12.48871,-8.58189 16.12256,-15.28433 3.30342,-6.092972 3.4461,-6.792396 3.4461,-16.893106 0,-9.81799 -0.20542,-10.911806 -3.01056,-16.030314 -4.01884,-7.333123 -9.01934,-12.186499 -16.16892,-15.693176 -5.25941,-2.579602 -6.95594,-2.89715 -15.442,-2.890353 -11.11484,0.0089 -15.83293,1.795756 -23.9053,9.053512 -7.35439,6.612226 -10.70556,14.62522 -10.71152,25.612376 -0.004,7.873083 0.30075,9.199376 3.69269,16.056335 4.09314,8.274446 9.87123,13.587396 18.60239,17.104916 6.85898,2.76328 21.00448,2.22801 27.37456,-1.03586 z m 131.7021,-12.95016 c 13.12524,-13.192021 15.8155,-16.390797 15.8155,-18.804949 0,-2.42026 -2.73775,-5.650507 -16.29581,-19.227272 -13.76554,-13.784527 -16.75964,-16.318295 -19.28305,-16.318295 -2.51877,0 -5.47124,2.484021 -18.82742,15.840195 -14.29511,14.295116 -15.8402,16.176017 -15.8402,19.283045 0,3.107028 1.54509,4.987928 15.8402,19.283036 14.33895,14.33896 16.16883,15.8402 19.30773,15.8402 3.14281,0 4.94865,-1.48865 19.28305,-15.89596 z m 126.35226,13.45164 c 8.2568,-2.98978 7.94574,-1.6356 7.644,-33.277535 l -0.26703,-28.001733 -6.02112,-3.010564 c -5.82998,-2.91499 -6.46713,-3.010563 -20.07042,-3.010563 -13.6033,0 -14.24045,0.09558 -20.07043,3.010563 l -6.02112,3.010564 v 28.544103 28.544105 l 3.45155,2.01581 c 6.25475,3.65298 11.89719,4.6219 24.64704,4.23241 7.9402,-0.24256 13.63143,-0.94331 16.70753,-2.05716 z M 796.79511,83.512274 V 53.908401 h -34.62148 -34.62148 l -0.26692,28.587482 c -0.14679,15.723114 -0.0458,29.163697 0.22446,29.867957 0.38796,1.01101 7.72985,1.22491 34.88839,1.01639 l 34.39703,-0.26408 z"
     id="path4544"
     inkscape:connector-curvature="0" />
</svg>
